<svg version="1.1" id="Layer_1" xmlns="http://www.w3.org/2000/svg" xmlns:xlink="http://www.w3.org/1999/xlink" x="0px" y="0px"
	 width="100%" viewBox="0 0 180 180" enable-background="new 0 0 180 180" xml:space="preserve">
<path fill="#29B298" opacity="1.000000" stroke="none" 
	d="
M1.000000,172.000000 
	C1.000000,118.312439 1.000000,64.624878 1.239519,10.799646 
	C3.521127,8.420248 5.577958,6.191690 7.598247,3.930485 
	C8.438964,2.989513 9.201767,1.978929 10.000000,1.000000 
	C63.687561,1.000000 117.375122,1.000000 171.195892,1.233399 
	C174.086609,4.318291 176.827347,7.186596 179.632904,9.990028 
	C179.862595,10.219543 180.533890,10.007091 181.000000,10.000000 
	C181.000000,63.687561 181.000000,117.375122 180.760498,171.200348 
	C178.478943,173.579865 176.422165,175.808563 174.401855,178.069839 
	C173.561203,179.010788 172.798279,180.021194 172.000000,181.000000 
	C118.312439,181.000000 64.624878,181.000000 10.799650,180.760498 
	C8.420195,178.478897 6.191569,176.422058 3.930305,174.401749 
	C2.989377,173.561050 1.978870,172.798233 1.000000,172.000000 
M114.690941,69.195587 
	C114.601463,60.718739 111.516113,53.704689 103.652267,49.955936 
	C92.684967,44.727749 82.636078,47.145840 73.648537,55.251209 
	C72.538048,53.661640 71.624870,52.293896 70.650253,50.971420 
	C68.273926,47.746933 65.496819,45.430298 61.433868,48.216221 
	C57.450668,50.947460 58.777641,54.042656 61.091072,57.195263 
	C65.358597,63.010792 67.342072,69.410095 67.073044,76.785286 
	C66.496376,92.593628 66.569359,108.425354 66.022522,124.235268 
	C65.859337,128.953156 67.741913,131.524796 71.927277,132.694168 
	C83.733948,135.992905 95.629646,136.598541 107.256187,132.250275 
	C116.985748,128.611496 122.565315,121.482796 123.233864,110.808205 
	C123.884438,100.420517 119.134720,93.275291 110.184845,88.640686 
	C108.202049,87.613914 105.952049,87.103142 103.276901,86.161903 
	C108.891693,81.713181 113.535980,77.054291 114.690941,69.195587 
z"/>
<path fill="#000000" opacity="1.000000" stroke="none" 
	d="
M181.000000,9.508951 
	C180.533890,10.007091 179.862595,10.219543 179.632904,9.990028 
	C176.827347,7.186596 174.086609,4.318291 171.664551,1.233399 
	C174.917358,1.000000 177.834702,1.000000 181.000000,1.000000 
	C181.000000,3.670005 181.000000,6.343954 181.000000,9.508951 
z"/>
<path fill="#000000" opacity="1.000000" stroke="none" 
	d="
M9.508951,1.000000 
	C9.201767,1.978929 8.438964,2.989513 7.598247,3.930485 
	C5.577958,6.191690 3.521127,8.420248 1.239519,10.330988 
	C1.000000,7.082645 1.000000,4.165290 1.000000,1.000000 
	C3.670005,1.000000 6.343954,1.000000 9.508951,1.000000 
z"/>
<path fill="#000000" opacity="1.000000" stroke="none" 
	d="
M1.000000,172.491058 
	C1.978870,172.798233 2.989377,173.561050 3.930305,174.401749 
	C6.191569,176.422058 8.420195,178.478897 10.330993,180.760498 
	C7.082646,181.000000 4.165292,181.000000 1.000000,181.000000 
	C1.000000,178.330002 1.000000,175.656052 1.000000,172.491058 
z"/>
<path fill="#000000" opacity="1.000000" stroke="none" 
	d="
M172.491058,181.000000 
	C172.798279,180.021194 173.561203,179.010788 174.401855,178.069839 
	C176.422165,175.808563 178.478943,173.579865 180.760498,171.669006 
	C181.000000,174.917358 181.000000,177.834702 181.000000,181.000000 
	C178.330002,181.000000 175.656052,181.000000 172.491058,181.000000 
z"/>
<path fill="#FAFDFD" opacity="1.000000" stroke="none" 
	d="
M114.614075,69.596970 
	C113.535980,77.054291 108.891693,81.713181 103.276901,86.161903 
	C105.952049,87.103142 108.202049,87.613914 110.184845,88.640686 
	C119.134720,93.275291 123.884438,100.420517 123.233864,110.808205 
	C122.565315,121.482796 116.985748,128.611496 107.256187,132.250275 
	C95.629646,136.598541 83.733948,135.992905 71.927277,132.694168 
	C67.741913,131.524796 65.859337,128.953156 66.022522,124.235268 
	C66.569359,108.425354 66.496376,92.593628 67.073044,76.785286 
	C67.342072,69.410095 65.358597,63.010792 61.091072,57.195263 
	C58.777641,54.042656 57.450668,50.947460 61.433868,48.216221 
	C65.496819,45.430298 68.273926,47.746933 70.650253,50.971420 
	C71.624870,52.293896 72.538048,53.661640 73.648537,55.251209 
	C82.636078,47.145840 92.684967,44.727749 103.652267,49.955936 
	C111.516113,53.704689 114.601463,60.718739 114.614075,69.596970 
M92.217644,93.375580 
	C88.900093,93.643814 86.836609,92.314262 86.251907,88.883926 
	C85.685852,85.562988 87.084976,83.740509 90.074997,82.268936 
	C93.617050,80.525673 97.057106,78.397827 100.127808,75.923431 
	C103.281311,73.382324 104.603279,69.863335 103.423988,65.648026 
	C101.682640,59.423679 97.712395,57.020882 90.404533,57.968185 
	C83.408958,58.875008 78.050232,64.084251 78.060837,70.061211 
	C78.084732,83.533928 78.153503,97.006569 78.196960,110.479256 
	C78.209755,114.445847 78.198929,118.412529 78.198929,122.302292 
	C88.711098,126.100487 97.315048,125.804085 104.798141,121.465363 
	C115.007835,115.545723 115.209732,102.800621 104.859985,97.000473 
	C101.367050,95.042984 97.013107,94.621895 92.217644,93.375580 
z"/>
<path fill="#2EB49A" opacity="1.000000" stroke="none" 
	d="
M92.635147,93.437111 
	C97.013107,94.621895 101.367050,95.042984 104.859985,97.000473 
	C115.209732,102.800621 115.007835,115.545723 104.798141,121.465363 
	C97.315048,125.804085 88.711098,126.100487 78.198929,122.302292 
	C78.198929,118.412529 78.209755,114.445847 78.196960,110.479256 
	C78.153503,97.006569 78.084732,83.533928 78.060837,70.061211 
	C78.050232,64.084251 83.408958,58.875008 90.404533,57.968185 
	C97.712395,57.020882 101.682640,59.423679 103.423988,65.648026 
	C104.603279,69.863335 103.281311,73.382324 100.127808,75.923431 
	C97.057106,78.397827 93.617050,80.525673 90.074997,82.268936 
	C87.084976,83.740509 85.685852,85.562988 86.251907,88.883926 
	C86.836609,92.314262 88.900093,93.643814 92.635147,93.437111 
z"/>
</svg>